<svg id="Layer_2" data-name="Layer 2" xmlns="http://www.w3.org/2000/svg" viewBox="0 0 40 35.85"><defs><style>.cls-1{fill:#f3ab00;fill-rule:evenodd;}</style></defs><title>error</title><path class="cls-1" d="M1059.37,238.88l-15.43-26.73a4.56,4.56,0,0,0-7.9,0l-15.43,26.73a4.56,4.56,0,0,0,4,6.85h30.86A4.56,4.56,0,0,0,1059.37,238.88Zm-19.38,2a1.5,1.5,0,1,1,1.5-1.5A1.5,1.5,0,0,1,1040,240.88Zm1.49-6.5a1.5,1.5,0,0,1-1.5,1.5h0a1.5,1.5,0,0,1-1.5-1.5l0-14a1.5,1.5,0,0,1,1.5-1.5h0a1.5,1.5,0,0,1,1.5,1.5Z" transform="translate(-1019.99 -209.87)"/></svg>