<svg id="Layer_2" data-name="Layer 2" xmlns="http://www.w3.org/2000/svg" viewBox="0 0 40 40"><defs><style>.cls-1{fill:#fee0d2;}.cls-2{fill:#ef3b2c;}</style></defs><title>status-red</title><circle class="cls-1" cx="20" cy="20" r="20"/><path class="cls-2" d="M1628-53a17,17,0,0,1,17,17,17,17,0,0,1-17,17,17,17,0,0,1-17-17,17,17,0,0,1,17-17m0-3a20,20,0,0,0-20,20,20,20,0,0,0,20,20,20,20,0,0,0,20-20,20,20,0,0,0-20-20h0Z" transform="translate(-1607.99 56)"/><path class="cls-2" d="M1621.27-27.78a1.5,1.5,0,0,1-1.06-.44,1.5,1.5,0,0,1,0-2.12l13.44-13.43a1.5,1.5,0,0,1,2.12,0,1.5,1.5,0,0,1,0,2.12l-13.44,13.43A1.5,1.5,0,0,1,1621.27-27.78Z" transform="translate(-1607.99 56)"/><path class="cls-2" d="M1634.7-27.78a1.5,1.5,0,0,1-1.06-.44l-13.44-13.43a1.5,1.5,0,0,1,0-2.12,1.5,1.5,0,0,1,2.12,0l13.44,13.43a1.5,1.5,0,0,1,0,2.12A1.5,1.5,0,0,1,1634.7-27.78Z" transform="translate(-1607.99 56)"/></svg>