<svg id="Layer_2" data-name="Layer 2" xmlns="http://www.w3.org/2000/svg" viewBox="0 0 40 40"><defs><style>.cls-1{fill:#e5f5e0;}.cls-2{fill:#41ab5d;}</style></defs><title>status-green</title><circle class="cls-1" cx="20" cy="20" r="20"/><path class="cls-2" d="M1560-53a17,17,0,0,1,17,17,17,17,0,0,1-17,17,17,17,0,0,1-17-17,17,17,0,0,1,17-17m0-3a20,20,0,0,0-20,20,20,20,0,0,0,20,20,20,20,0,0,0,20-20,20,20,0,0,0-20-20h0Z" transform="translate(-1539.99 56)"/><path class="cls-2" d="M1557.16-28.84a1.5,1.5,0,0,1-1.06-.44,1.5,1.5,0,0,1,0-2.12l11.31-11.31a1.5,1.5,0,0,1,2.12,0,1.5,1.5,0,0,1,0,2.12l-11.31,11.31A1.5,1.5,0,0,1,1557.16-28.84Z" transform="translate(-1539.99 56)"/><path class="cls-2" d="M1557.16-28.84a1.5,1.5,0,0,1-1.06-.44l-5.66-5.66a1.5,1.5,0,0,1,0-2.12,1.5,1.5,0,0,1,2.12,0l5.66,5.66a1.5,1.5,0,0,1,0,2.12A1.5,1.5,0,0,1,1557.16-28.84Z" transform="translate(-1539.99 56)"/></svg>